# OBJ written from C:\Users\nelim\Desktop\vr\Scenes\screen.obj
# Units	meters

o Cube
v -0.3275 0.007 -0.0175
v 0.3275 0.007 -0.0175
v 0.3275 0.007 0.0175
v -0.3275 0.007 0.0175
v -0.3275 0.317 -0.0175
v 0.3275 0.317 -0.0175
v 0.3275 0.317 0.0175
v -0.3275 0.317 0.0175
v 0.31248 0.007 0.0175
v 0.31248 0.007 -0.0175
v -0.31248 0.007 0.0175
v -0.31248 0.007 -0.0175
v 0.31248 0.317 -0.0175
v -0.31248 0.317 -0.0175
v 0.31248 0.317 0.0175
v -0.31248 0.317 0.0175
v 0.3275 0.30144 0.0175
v 0.3275 0.30144 -0.0175
v 0.3275 0.02256 0.0175
v 0.3275 0.02256 -0.0175
v -0.3275 0.30144 -0.0175
v -0.3275 0.30144 0.0175
v -0.3275 0.02256 -0.0175
v -0.3275 0.02256 0.0175
v 0.31248 0.30144 -0.0175
v 0.31248 0.02256 -0.0175
v -0.31248 0.30144 -0.0175
v -0.31248 0.02256 -0.0175
v 0.31248 0.30144 -0.0075
v 0.31248 0.02256 -0.0075
v -0.31248 0.30144 -0.0075
v -0.31248 0.02256 -0.0075
vn 0 -0.31 0
vn 0 0.31 0
vn 0.655 0 0
vn -0.655 0 0
vn 0 0 -0.035
vn -0.654663 0 0.00112306
vn -0.654663 0 0.00112306
vn -0.639705 0.0658874 0.0010974
vn -0.595516 0.128764 0.00102159
vn 0 -0.309237 0.00245343
vn 0 0 0.035
vn 0 0.309237 0.00245343
vn 0.639705 -0.0658874 0.0010974
vn 0.595516 -0.128764 0.00102159
vn 0.654663 0 0.00112306
vn 0.654663 0 0.00112306
vt 0.494267 0
vt 0.5 0
vt 0.5 0.333333
vt 0.494267 0.333333
vt 0.255733 0.333333
vt 0.255733 0
vt 0.25 0.333333
vt 0.25 0
vt 0.494267 0.666667
vt 0.5 0.666667
vt 0.5 1
vt 0.494267 1
vt 0.255733 1
vt 0.255733 0.666667
vt 0.25 1
vt 0.25 0.666667
vt 0.75 0.649935
vt 0.75 0.666667
vt 0.5 0.649935
vt 0.5 0.350065
vt 0.75 0.350065
vt 0.75 0.333333
vt 0.25 0.649935
vt 0 0.666667
vt 0 0.649935
vt 0 0.350065
vt 0.25 0.350065
vt 0 0.333333
vt 0.755733 0.649935
vt 0.755733 0.666667
vt 0.755733 0.350065
vt 0.755733 0.333333
vt 0.994267 0.649935
vt 0.994267 0.666667
vt 0.994267 0.350065
vt 0.994267 0.333333
vt 1 0.649935
vt 1 0.666667
vt 1 0.350065
vt 1 0.333333
vt 0.494267 0.649935
vt 0.494267 0.350065
vt 0.255733 0.649935
vt 0.255733 0.350065
mtllib screen.mtl
usemtl Default
g Default
f 10/1/1 2/2/1 3/3/1 9/4/1
f 9/4/1 11/5/1 12/6/1 10/1/1
f 11/5/1 4/7/1 1/8/1 12/6/1
f 15/9/2 7/10/2 6/11/2 13/12/2
f 13/12/2 14/13/2 16/14/2 15/9/2
f 14/13/2 5/15/2 8/16/2 16/14/2
f 18/17/3 6/18/3 7/10/3 17/19/3
f 17/19/3 19/20/3 20/21/3 18/17/3
f 19/20/3 3/3/3 2/22/3 20/21/3
f 22/23/4 8/16/4 5/24/4 21/25/4
f 21/25/4 23/26/4 24/27/4 22/23/4
f 23/26/4 1/28/4 4/7/4 24/27/4
f 25/29/5 13/30/5 6/18/5 18/17/5
f 18/17/5 20/21/5 26/31/5 25/29/5
f 20/21/5 2/22/5 10/32/5 26/31/5
f 27/33/5 14/34/5 13/30/5 25/29/5
f 25/29/5 26/31/5 28/35/5 27/33/5
f 26/31/5 10/32/5 12/36/5 28/35/5
f 21/37/5 5/38/5 14/34/5 27/33/5
f 27/33/5 28/35/5 23/39/5 21/37/5
f 28/35/5 12/36/5 1/40/5 23/39/5
f 17/19/6 7/10/7 15/9/7 29/41/6
f 29/41/6 30/42/8 19/20/8 17/19/6
f 30/42/8 9/4/9 3/3/9 19/20/8
f 29/41/10 15/9/10 16/14/10 31/43/10
f 31/43/11 32/44/11 30/42/11 29/41/11
f 32/44/12 11/5/12 9/4/12 30/42/12
f 31/43/13 16/14/14 8/16/14 22/23/13
f 22/23/13 24/27/15 32/44/15 31/43/13
f 24/27/15 4/7/16 11/5/16 32/44/15
